name analog
datacolumns 19
datarows 22
range 0.176 0.1865
endheader
time	ground_force_vx	ground_force_vy	ground_force_vz	ground_force_px	ground_force_py	ground_force_pz	l_ground_force_vx	l_ground_force_vy	l_ground_force_vz	l_ground_force_px	l_ground_force_py	l_ground_force_pz	ground_torque_x	ground_torque_y	ground_torque_z	l_ground_torque_x	l_ground_torque_y	l_ground_torque_z
0.176	-0.0	-0.0	-0.0	-12.753552436828612	0.0356647074222564	-786.53173828125	-0.0	-0.0	-0.0	-35.003414154052734	16.090478897094727	75.34481811523438	-0.0	-0.0	-0.0	-0.0	-0.0	-0.0
0.1765	-0.0	-0.0	-0.0	-12.043418884277344	-0.1956855654716491	-785.3170776367188	-0.0	-0.0	-0.0	-34.9026985168457	15.989262580871582	75.6080322265625	-0.0	-0.0	-0.0	-0.0	-0.0	-0.0
0.177	-0.0	-0.0	-0.0	-11.429962158203123	-0.2673912048339844	-782.2260131835938	-0.0	-0.0	-0.0	-34.964481353759766	16.25913429260254	76.56163024902344	-0.0	-0.0	-0.0	-0.0	-0.0	-0.0
0.1775	-0.0	-0.0	-0.0	-10.680191040039062	-1.8717384338378904	-783.6624145507812	-0.0	-0.0	-0.0	-34.657169342041016	16.233736038208008	75.4547119140625	-0.0	-0.0	-0.0	-0.0	-0.0	-0.0
0.178	-0.0	-0.0	-0.0	-10.22021484375	-2.359011650085449	-783.4525146484375	-0.0	-0.0	-0.0	-34.95298385620117	15.963750839233398	75.35554504394531	-0.0	-0.0	-0.0	-0.0	-0.0	-0.0
0.1785	-0.0	-0.0	-0.0	-9.863447189331056	-2.635027885437012	-782.6372680664062	-0.0	-0.0	-0.0	-34.90231704711914	16.090974807739258	74.6004867553711	-0.0	-0.0	-0.0	-0.0	-0.0	-0.0
0.179	-0.0	-0.0	-0.0	-9.021690368652344	-3.412092447280884	-782.447509765625	-0.0	-0.0	-0.0	-34.95293426513672	16.08070945739746	75.8056640625	-0.0	-0.0	-0.0	-0.0	-0.0	-0.0
0.1795	-0.0	-0.0	-0.0	-10.961313247680664	-4.417739391326904	-779.1607666015625	-0.0	-0.0	-0.0	-34.633785247802734	16.181100845336914	74.7528076171875	-0.0	-0.0	-0.0	-0.0	-0.0	-0.0
0.18	-0.0	-0.0	-0.0	-11.892008781433104	-5.591776847839356	-780.327880859375	-0.0	-0.0	-0.0	-34.88880157470703	16.09233283996582	76.55952453613281	-0.0	-0.0	-0.0	-0.0	-0.0	-0.0
0.1805	-0.0	-0.0	-0.0	-11.864997863769531	-5.870852470397949	-777.1491088867188	-0.0	-0.0	-0.0	-34.82476043701172	16.00130271911621	76.10476684570312	-0.0	-0.0	-0.0	-0.0	-0.0	-0.0
0.181	-0.0	-0.0	-0.0	-12.03005313873291	-6.83778190612793	-775.1828002929688	-0.0	-0.0	-0.0	-34.748443603515625	16.271326065063477	76.00536346435547	-0.0	-0.0	-0.0	-0.0	-0.0	-0.0
0.1815	-0.0	-0.0	-0.0	-11.609432220458984	-7.627862930297852	-773.8696899414062	-0.0	-0.0	-0.0	-34.96575927734375	15.988466262817385	74.19993591308594	-0.0	-0.0	-0.0	-0.0	-0.0	-0.0
0.182	-0.0	-0.0	-0.0	-10.806629180908203	-8.938359260559082	-770.6867065429688	-0.0	-0.0	-0.0	-34.86328887939453	15.988937377929688	75.40402221679688	-0.0	-0.0	-0.0	-0.0	-0.0	-0.0
0.1825	-0.0	-0.0	-0.0	-10.016193389892578	-9.422465324401855	-769.0219116210938	-0.0	-0.0	-0.0	-34.99100112915039	15.924625396728516	76.80853271484375	-0.0	-0.0	-0.0	-0.0	-0.0	-0.0
0.183	-0.0	-0.0	-0.0	-8.678836822509766	-9.371639251708984	-770.2835083007812	-0.0	-0.0	-0.0	-34.863216400146484	16.33597183227539	75.4547119140625	-0.0	-0.0	-0.0	-0.0	-0.0	-0.0
0.1835	-0.0	-0.0	-0.0	-7.009281158447266	-8.645648956298828	-771.3977661132812	-0.0	-0.0	-0.0	-34.97826385498047	16.297523498535156	76.30669403076172	-0.0	-0.0	-0.0	-0.0	-0.0	-0.0
0.184	-0.0	-0.0	-0.0	-5.276043891906738	-8.225221633911133	-773.36328125	-0.0	-0.0	-0.0	-34.90137481689453	16.50286102294922	76.1072998046875	-0.0	-0.0	-0.0	-0.0	-0.0	-0.0
0.1845	-0.0	-0.0	-0.0	-4.6517205238342285	-7.257798671722412	-774.2713623046875	-0.0	-0.0	-0.0	-34.72309875488281	16.21959114074707	74.95419311523438	-0.0	-0.0	-0.0	-0.0	-0.0	-0.0
0.185	-0.0	-0.0	-0.0	-4.192893981933594	-6.137400150299072	-775.2798461914062	-0.0	-0.0	-0.0	-34.81270217895508	16.01459503173828	75.20459747314453	-0.0	-0.0	-0.0	-0.0	-0.0	-0.0
0.1855	-0.0	-0.0	-0.0	-3.8733417987823486	-4.329720973968506	-774.5235595703125	-0.0	-0.0	-0.0	-35.08002471923828	16.130430221557617	75.50733947753906	-0.0	-0.0	-0.0	-0.0	-0.0	-0.0
0.186	-0.0	-0.0	-0.0	-3.37754487991333	-2.012669086456299	-773.6173095703125	-0.0	-0.0	-0.0	-34.92675018310547	16.194534301757812	75.46011352539062	-0.0	-0.0	-0.0	-0.0	-0.0	-0.0
0.1865	-0.0	-0.0	-0.0	-4.128366470336914	0.0758608877658844	-771.5966796875	-0.0	-0.0	-0.0	-34.940391540527344	15.848451614379885	76.05542755126953	-0.0	-0.0	-0.0	-0.0	-0.0	-0.0
